# xmcd
#
# Track frame offsets:
#	150
#	4086
#	33115
#	68117
#	102185
#	131568
#	162801
#
# Disc length: 2968 seconds
#
# Revision: 0
# Processed by: cddbd v1.5.2PL0 Copyright (c) Steve Scherf et al.
# Submitted via: audiograbber 1.83.01
#
DISCID=4c0b9607
DTITLE=Grateful Dead - 94-04-04 Miami Arena, Miami FL
DYEAR=1900
DGENRE=
TTITLE0=Tuning 2
TTITLE1=Here Comes Sunshine
TTITLE2=Samson and Delilah
TTITLE3=Cumberland Blues
TTITLE4=Way To Go Home
TTITLE5=Man Smart, Woman Smarter
TTITLE6=Drums
EXTD=
EXTT0=
EXTT1=
EXTT2=
EXTT3=
EXTT4=
EXTT5=
EXTT6=
PLAYORDER=
